<svg id="Layer_1" data-name="Layer 1" xmlns="http://www.w3.org/2000/svg" viewBox="0 0 600 300"><defs><style>.cls-1{fill:#157de6;}</style></defs><title>bank</title><path class="cls-1" d="M248.44,134.15c-.06,2,0,4.09,0,6.14,0,1.36-.51,2-1.92,2q-13.43,0-26.86,0c-1.39,0-2-.57-2-1.95q.06-3.16,0-6.33c0-1.51.69-2,2.13-2,4.41,0,8.82,0,13.24,0s8.83,0,13.24,0C247.91,132,248.49,132.61,248.44,134.15Zm-7.33,11.91c-5.3.07-10.61,0-15.91,0-2.32,0-2.49.16-2.49,2.52q0,11.4,0,22.81c0,7.73,0,15.46,0,23.19,0,1.69.49,2.41,2.3,2.38q8-.14,16.1,0c1.82,0,2.51-.61,2.51-2.44q-.06-23,0-46C243.6,146.72,242.94,146,241.12,146.06Zm-21,68.58c4.28-.12,8.57,0,12.85,0s8.82,0,13.23,0c1.54,0,2.24-.48,2.22-2.08-.05-3.32,0-6.65,0-10,0-1.36-.55-2-1.94-2q-13.43,0-26.85,0c-1.37,0-1.95.64-1.94,2,0,3.2.05,6.39,0,9.59C217.66,213.94,218.25,214.7,220.15,214.64ZM200.23,124.7c-.7-2.3,0-4.24,2.16-5.82l34.24-25Q259,77.55,281.41,61.21a30.86,30.86,0,0,1,37-.08q39.53,28.8,79,57.65c2.32,1.69,3.07,3.75,2.27,6.16-.71,2.15-2.36,3.11-5.34,3.11H205.55C202.44,128.05,201,127.11,200.23,124.7Zm74.11-31.81a25.69,25.69,0,1,0,25.72-25.34A25.68,25.68,0,0,0,274.34,92.89ZM375,146.07c-5.37.07-10.75,0-16.12,0-1.66,0-2.39.5-2.39,2.32q.08,23.13,0,46.25c0,1.76.62,2.36,2.37,2.33,5.31-.08,10.62,0,15.93,0,2.41,0,2.52-.1,2.52-2.47q0-11.42,0-22.84c0-7.74,0-15.48,0-23.22C377.32,146.65,376.7,146,375,146.07ZM200,245H399.93V230.9H200Zm151.42-32.65c0,1.63.56,2.31,2.24,2.28,4.41-.07,8.81,0,13.22,0s8.69-.05,13,0c1.76,0,2.38-.63,2.33-2.36-.09-3.19-.06-6.39,0-9.58,0-1.46-.54-2.1-2-2.1q-13.32,0-26.64,0c-1.5,0-2.2.59-2.16,2.18Q351.58,207.56,351.47,212.35ZM204.78,226.3H395.17c.48-4.49,0-5.37-4.2-6.3a45.24,45.24,0,0,0-9.48-1.12q-81.57-.1-163.14,0a45,45,0,0,0-10,1.31C204.62,221.05,204,222.37,204.78,226.3ZM279.4,93.07A20.69,20.69,0,0,1,300,72.64,20.54,20.54,0,1,1,279.4,93.07Zm16.54-1.72v.13h-3.73l.05.06L294,93.34a.21.21,0,0,0,.13.05h1.83v.14c0,2,0,3.91,0,5.86a1.62,1.62,0,0,0,.21.8,2.92,2.92,0,0,0,.17.29,5.68,5.68,0,0,0,1.82,1.64,3.79,3.79,0,0,0,1.44.52,5.14,5.14,0,0,0,1.2,0,6.69,6.69,0,0,0,3.25-1.25,9.68,9.68,0,0,0,2.71-3,6.46,6.46,0,0,0,.9-3.65,4.7,4.7,0,0,0-1.13-2.88,3.34,3.34,0,0,0-1.11-.87,3.2,3.2,0,0,0-1.76-.25,2.66,2.66,0,0,0-1,.27,2,2,0,0,0-1,1.27,3.23,3.23,0,0,0,.23,2.41,1.74,1.74,0,0,0,.75.76,2.89,2.89,0,0,0,1.49.31l.43,0c0,.06,0,.1,0,.14a3.85,3.85,0,0,1-.41,1.43,7.05,7.05,0,0,1-2.53,2.71,3.1,3.1,0,0,1-2.26.48,1.65,1.65,0,0,1-1.44-1.68q0-2.62,0-5.23v-.13h3l0,0-1.78-1.82a.18.18,0,0,0-.12,0h-1v-.13c0-1.23,0-2.47,0-3.7a8.58,8.58,0,0,0-.07-1,4.14,4.14,0,0,0-.79-2,2.12,2.12,0,0,0-1.74-.9,3.45,3.45,0,0,0-1.87.56,1.14,1.14,0,0,0-.26.23.66.66,0,0,0-.14.69c.16.41.36.81.55,1.21a1.42,1.42,0,0,0,.08.14,4,4,0,0,1,.39-.13,1.76,1.76,0,0,1,1.23.2,1.09,1.09,0,0,1,.58.77,2.07,2.07,0,0,1,0,.4Q295.94,89.56,295.94,91.36Zm-31.27,50.93c4.34-.08,8.68,0,13,0h0c4.4,0,8.81,0,13.21,0,1.52,0,2.25-.51,2.2-2.11-.07-2,0-4.08,0-6.13,0-1.32-.46-2-1.89-2q-13.5,0-27,0c-1.28,0-1.87.51-1.84,1.82,0,2,.11,4.09,0,6.13C262.24,141.73,262.94,142.32,264.67,142.29ZM380.38,132q-13.5,0-27,0c-1.42,0-1.92.68-1.89,2,0,1.91,0,3.83,0,5.75,0,2.26.23,2.48,2.56,2.49h12.83c4.41,0,8.81,0,13.22,0,1.52,0,2.24-.52,2.18-2.12-.08-2-.05-4.09,0-6.13C382.3,132.67,381.8,132,380.38,132Zm-49.84,14.06q-8.25.07-16.51,0c-1.51,0-2.18.51-2.17,2.13q.06,23.32,0,46.64c0,1.59.63,2.13,2.18,2.12,5.44-.06,10.88-.07,16.31,0,1.74,0,2.37-.56,2.35-2.33-.07-7.68,0-15.35,0-23s0-15.48,0-23.22C332.73,146.76,332.21,146,330.54,146.06Zm-21.3,68.57c4.34-.09,8.68,0,13,0s8.81,0,13.22,0c1.53,0,2.23-.51,2.2-2.1-.06-3.32-.05-6.64,0-10,0-1.41-.62-2-2-2q-13.41,0-26.82,0c-1.46,0-2,.65-2,2.11.06,3.19.07,6.39,0,9.58C306.84,214,307.49,214.67,309.24,214.63ZM290.8,200.58q-13.14,0-26.28,0c-1.49,0-2.22.5-2.17,2.13.09,3.26.08,6.52,0,9.78,0,1.59.57,2.15,2.14,2.13,4.41-.06,8.83,0,13.24,0s8.7,0,13,0c1.61,0,2.36-.5,2.32-2.2q-.1-4.79,0-9.59C293.15,201.15,292.4,200.58,290.8,200.58Zm-5-54.5c-5.43.07-10.87,0-16.3,0-1.64,0-2.28.63-2.27,2.27q0,23.2,0,46.4c0,1.63.63,2.26,2.29,2.24,5.37-.07,10.74,0,16.11,0,2.29,0,2.53-.23,2.53-2.51q0-11.41,0-22.82c0-7.67,0-15.34,0-23C288.2,146.84,287.67,146.05,285.78,146.08ZM335.37,132c-4.34.08-8.69,0-13,0s-8.82,0-13.22,0c-1.67,0-2.3.62-2.24,2.26.08,2,0,4.09,0,6.13,0,1.15.4,1.86,1.64,1.86h27.4c1.31,0,1.78-.69,1.75-2-.05-2-.09-4,0-5.94C337.79,132.61,337.13,132,335.37,132Z"/></svg>