<svg id="Layer_1" data-name="Layer 1" xmlns="http://www.w3.org/2000/svg" viewBox="0 0 600 300"><defs><style>.cls-1{fill:#157de6;}</style></defs><title>bkash</title><path class="cls-1" d="M234.35,104.93a4,4,0,0,1,.39.87l-.44.36-36.87-34.9.27-.68c3.11,0,6.22,0,9.33,0,.48,0,1,.57,1.39,1Q221.4,88.26,234.35,104.93ZM291,65.86,200.49,55l-.34.68,69.19,88.81ZM270,151a15.29,15.29,0,0,0-1-2.18l-27.18,95.86.59.32c.6-.44,1.23-.86,1.81-1.34,12.36-10.09,24.69-20.21,37.11-30.23a3.73,3.73,0,0,0,1.54-4.33C278.56,189.75,274.29,170.38,270,151Zm90.41,7.92.34-.7-66-92.16L273,145.17Zm-22.09-37.46,26.87,37.3,16.54-45.14Zm18.52,40.93L273.15,149l11.54,50.46L357,163.23ZM384.69,115l-6.45,17.57h24.06l.27-.77Zm-88.48,82.64.31.43a2.41,2.41,0,0,0,.51-.08q30.25-12.17,60.5-24.36a2.8,2.8,0,0,0,1.55-1.2c.92-2.43,1.67-4.93,2.49-7.4l-.52-.44Z"/></svg>