<svg id="Layer_1" data-name="Layer 1" xmlns="http://www.w3.org/2000/svg" viewBox="0 0 600 300"><defs><style>.cls-1{fill:#157de6;}</style></defs><title>nagad</title><path class="cls-1" d="M377.88,137.4c-1.13,1.88-2.26,3.39-3.39,5.27-1.13-1.13-2.26-1.88-3.39-3l-.38-.38c.08.58.14,1.14.19,1.7l-.19-.19-.25-.19c0-.19-.08-.37-.13-.56l-.38-.38-.38-.38v.38c0,.1,0,.19,0,.29a76.42,76.42,0,0,0-28.25-13.83,69.29,69.29,0,0,0-17.68-2.63c8.65,7.9,13.92,19.56,14.3,32.36V157a46.84,46.84,0,0,1-34.61,45.15,69.93,69.93,0,0,1-12.42,1.5h-3c-29.35,0-53-32.73-53-73.37a75.56,75.56,0,0,1,.38-9.41,91.18,91.18,0,0,1,8.65-31.23,1.31,1.31,0,0,0,.38-.75c0-.38.38-.38.38-.75-1.13,1.13-2.26,1.88-3.39,3a19.72,19.72,0,0,0-4.14,3.76c-.38,0-.38.38-.75.75-.38,0-.38.38-.75.75-.75.38-1.13,1.13-1.5,1.51-.75,1.13-1.88,2.26-2.63,3.39a81.84,81.84,0,0,0-9,15.8c-.38.38-.38,1.13-.75,1.5s-.38,1.13-.75,1.88c0,.38-.38.75-.38,1.13a25.91,25.91,0,0,0-1.13,3c-.38.38-.38,1.13-.75,1.88,0,.38-.38.75-.38,1.13,0,.75-.38,1.5-.38,2.26l-1.13,6.77,0,.09a6.5,6.5,0,0,0,0-.84l1.13-6.77a3,3,0,0,1,.05-.52c.26-1,.54-2.07.84-3.09.23-.41.29-1,.61-1.65.38-1.13.75-1.88,1.13-3,0-.38.38-.75.38-1.13.38-.38.38-1.13.75-1.88.38-.38.38-1.13.75-1.5a65.52,65.52,0,0,1,4.72-9.47,76.55,76.55,0,0,1,7.42-10,5,5,0,0,0,.69-.78l.57-.64.52-.52.75-.75c1.5-1.13,2.63-2.63,4.14-3.76,1.13-1.13,2.26-1.88,3.39-3,0-.38.38-.38.38-.75a82.62,82.62,0,0,1,6.4-9.41A88.61,88.61,0,1,0,366.22,203.61a56.77,56.77,0,0,0,5.64-10.53,84.4,84.4,0,0,0,7.52-29.35,43.21,43.21,0,0,0,.38-7.15h0a72.61,72.61,0,0,0-.38-8.65A88.72,88.72,0,0,0,377.88,137.4ZM371,141.89c.11,1.62.12,3.18.12,4.91v.72a38.24,38.24,0,0,0-.16-4.15A12.67,12.67,0,0,1,371,141.89Zm-154.52-3.37v-.75l0-.09A6.5,6.5,0,0,0,216.48,138.52Zm22.2-11.66A78.6,78.6,0,0,1,285,55L301.5,85.48c-29.35,11.66-50,39.5-50.42,72.24a70.9,70.9,0,0,0,.75,12.79A78.53,78.53,0,0,1,238.67,126.86ZM307.52,87l-9-16.55a70.2,70.2,0,0,1,40.26-12.79,79.45,79.45,0,0,1,9.78.75l.75,27.09L349.66,99a79,79,0,0,0-13.54-1.13,83.38,83.38,0,0,0-66.59,32.36,69.68,69.68,0,0,0-7.9,12.42,65.4,65.4,0,0,1,8.28-24.08A69.34,69.34,0,0,1,307.52,87Zm90.3,13.92-13.54,20.69-10.53,15.8A59.52,59.52,0,0,0,355.68,125a70,70,0,0,0-67.35,4.89,74.54,74.54,0,0,0-19.19,18.44,69.78,69.78,0,0,1,29.35-36.87A72,72,0,0,1,335,101.28a69.08,69.08,0,0,1,19.94,3l-.75-19.19A68.9,68.9,0,0,1,397.82,100.9Z"/></svg>