<?xml version="1.0" encoding="utf-8"?>
<!-- Generator: Adobe Illustrator 21.0.0, SVG Export Plug-In . SVG Version: 6.00 Build 0)  -->
<svg version="1.1" id="Layer_1" xmlns="http://www.w3.org/2000/svg" xmlns:xlink="http://www.w3.org/1999/xlink" x="0px" y="0px"
	 viewBox="0 0 600 300" style="enable-background:new 0 0 600 300;" xml:space="preserve">
<style type="text/css">
	.st0{fill:#157DE6;}
</style>
<title>rocket</title>
<path class="st0" d="M450.8,204.8c-1.4,8-7.2,17.4-20,17.6H375v-64.6h49.7c-2.6-16-20.8-16.5-27.4-6.3c0,0-10.7-9.5-12.9-11.3
	c11.4-19.8,55-18.8,57.5,17.6h8.6v17.6h-58.3v29.7h37.9c4.6-0.4,4.4-6.9,0-6.6h-21.9l7.4-17.2h17.2
	C443.8,183.3,451.6,191.9,450.8,204.8z M224.4,222.4h-14.7c-4-8.9-14.5-12.9-23.4-8.9c-4,1.8-7.1,4.9-8.9,8.9H177
	c-39.1-7-35.4-59.1,0.4-64.5h46.9L224.4,222.4z M207.1,175.5h-27.8c-19.9,3.5-14.7,30.3,1.6,29.3h26.2V175.5z M184.5,149.7h-6.3
	v-22.5h15.3c9.4,2.6,6.6,14.5,0.8,15.4l7,7h-9.7l-7-7L184.5,149.7z M184.5,136.2h7.5c0.8,0,1.5-0.7,1.5-1.5v-0.2
	c0-0.8-0.6-1.5-1.5-1.5c0,0,0,0,0,0h-7.5L184.5,136.2z M193.5,215.5c-7.9,0-14.2,6.4-14.2,14.2s6.4,14.2,14.2,14.2
	s14.2-6.4,14.2-14.2S201.3,215.5,193.5,215.5L193.5,215.5z M200.8,138.2c0-6.3,5.1-11.4,11.4-11.4c6.3,0,11.4,5.1,11.4,11.4
	c0,6.3-5.1,11.4-11.4,11.4h0C205.9,149.6,200.8,144.5,200.8,138.2z M207.2,138.2c0,2.8,2.2,5,5,5s5-2.2,5-5s-2.2-5-5-5
	S207.2,135.4,207.2,138.2z M334.7,175.5v46.9h-47.3c-39.1-7-35.4-59.1,0.4-64.5h46.9c29.7,1.7,43.8,36.6,19.2,57.9
	c0,0-9.4-10.2-11.7-12.9C353.7,195.7,350.4,176,334.7,175.5z M317.5,175.5h-27.8c-20,3.5-14.7,30.3,1.6,29.3h26.2V175.5z
	 M265.5,157.9h-22.7c-7.2,8.8-19.8,44.4,5.1,71.2c0,0,10.8-9.2,12.9-11C253.1,210.7,240.4,180.4,265.5,157.9L265.5,157.9z
	 M373.5,79.6l-44.6,44.6l3.1,25l8.2-17.2l25.4,32.5L401.2,55l-118.5,49.3l32.1,16.8L373.5,79.6z M302.9,149.2V133h8.1v-5.9h-22.1
	v5.9h8.1v16.2L302.9,149.2z M237.2,149.5h8.7v-6.6h-9.7c-2.6,0-4.7-2.1-4.7-4.7V138c0-2.6,2.1-4.7,4.7-4.7h9.7v-6.6h-8.7
	c-6.8,0-12.4,5.1-12.4,11.4S230.3,149.5,237.2,149.5L237.2,149.5z M278.5,149.5h8.7v-6.6h-10.3c-1.4,0-2.8-0.7-3.7-1.8h14v-6h-13.9
	c0.9-1.1,2.3-1.8,3.7-1.8h10.2v-6.6h-8.7c-6.8,0-12.4,5.1-12.4,11.4S271.6,149.5,278.5,149.5L278.5,149.5z M254.4,142.9l6.3,6.3h8.8
	l-11-11.1l10.9-11h-8.8l-6.1,6.2v-6.2h-5.9v22.1h5.9L254.4,142.9z"/>
</svg>
